solid ascii
  facet normal -8.320503e+000 0.000000e+000 0.000000e+000
    outer loop
      vertex   -1.000000e+001 1.500000e+001 4.440892e-015
      vertex   -1.000000e+001 1.000000e+001 4.440892e-015
      vertex   -1.000000e+001 1.000000e+001 7.500000e+000
    endloop
  endfacet
  facet normal -5.547002e+000 0.000000e+000 0.000000e+000
    outer loop
      vertex   -1.000000e+001 -1.000000e+001 7.500000e+000
      vertex   -1.000000e+001 -1.000000e+001 4.440892e-015
      vertex   -1.000000e+001 -1.500000e+001 4.440892e-015
    endloop
  endfacet
  facet normal -5.547002e+000 0.000000e+000 0.000000e+000
    outer loop
      vertex   -1.000000e+001 1.500000e+001 1.500000e+001
      vertex   -1.000000e+001 1.500000e+001 4.440892e-015
      vertex   -1.000000e+001 1.000000e+001 7.500000e+000
    endloop
  endfacet
  facet normal -9.230769e+000 0.000000e+000 0.000000e+000
    outer loop
      vertex   -1.000000e+001 -1.000000e+001 7.500000e+000
      vertex   -1.000000e+001 -1.500000e+001 4.440892e-015
      vertex   -1.000000e+001 -1.500000e+001 1.500000e+001
    endloop
  endfacet
  facet normal -4.474786e+000 0.000000e+000 0.000000e+000
    outer loop
      vertex   -1.000000e+001 1.500000e+001 1.500000e+001
      vertex   -1.000000e+001 1.000000e+001 7.500000e+000
      vertex   -1.000000e+001 6.420395e+000 1.010074e+001
    endloop
  endfacet
  facet normal -9.116039e+000 0.000000e+000 0.000000e+000
    outer loop
      vertex   -1.000000e+001 -6.420395e+000 1.010074e+001
      vertex   -1.000000e+001 -1.000000e+001 7.500000e+000
      vertex   -1.000000e+001 -1.500000e+001 1.500000e+001
    endloop
  endfacet
  facet normal -2.072415e+000 0.000000e+000 0.000000e+000
    outer loop
      vertex   -1.000000e+001 1.500000e+001 1.500000e+001
      vertex   -1.000000e+001 6.420395e+000 1.010074e+001
      vertex   -1.000000e+001 3.301416e+000 1.125139e+001
    endloop
  endfacet
  facet normal -7.657963e+000 0.000000e+000 0.000000e+000
    outer loop
      vertex   -1.000000e+001 -6.420395e+000 1.010074e+001
      vertex   -1.000000e+001 -1.500000e+001 1.500000e+001
      vertex   -1.000000e+001 -3.301416e+000 1.125139e+001
    endloop
  endfacet
  facet normal -9.666932e-001 0.000000e+000 0.000000e+000
    outer loop
      vertex   -1.000000e+001 1.500000e+001 1.500000e+001
      vertex   -1.000000e+001 3.301416e+000 1.125139e+001
      vertex   -1.000000e+001 -5.552176e-001 1.163123e+001
    endloop
  endfacet
  facet normal -8.088526e-001 0.000000e+000 0.000000e+000
    outer loop
      vertex   -1.000000e+001 -1.500000e+001 1.500000e+001
      vertex   -1.000000e+001 -5.552176e-001 1.163123e+001
      vertex   -1.000000e+001 -3.301416e+000 1.125139e+001
    endloop
  endfacet
  facet normal -2.271222e+000 0.000000e+000 0.000000e+000
    outer loop
      vertex   -1.000000e+001 -1.500000e+001 1.500000e+001
      vertex   -1.000000e+001 1.500000e+001 1.500000e+001
      vertex   -1.000000e+001 -5.552176e-001 1.163123e+001
    endloop
  endfacet
  facet normal 0.000000e+000 1.269670e+000 -1.747548e+000
    outer loop
      vertex   1.000000e+001 -1.000000e+001 7.500000e+000
      vertex   -1.000000e+001 -1.000000e+001 7.500000e+000
      vertex   -1.000000e+001 -6.420395e+000 1.010074e+001
    endloop
  endfacet
  facet normal 0.000000e+000 1.269670e+000 -1.747548e+000
    outer loop
      vertex   -1.000000e+001 -6.420395e+000 1.010074e+001
      vertex   1.000000e+001 -6.420395e+000 1.010074e+001
      vertex   1.000000e+001 -1.000000e+001 7.500000e+000
    endloop
  endfacet
  facet normal 3.469447e-017 -9.622579e-001 -9.770130e+000
    outer loop
      vertex   1.000000e+001 3.301416e+000 1.125139e+001
      vertex   1.000000e+001 -5.552176e-001 1.163123e+001
      vertex   -1.000000e+001 -5.552176e-001 1.163123e+001
    endloop
  endfacet
  facet normal 3.469447e-017 -9.622579e-001 -9.770130e+000
    outer loop
      vertex   -1.000000e+001 -5.552176e-001 1.163123e+001
      vertex   -1.000000e+001 3.301416e+000 1.125139e+001
      vertex   1.000000e+001 3.301416e+000 1.125139e+001
    endloop
  endfacet
  facet normal 0.000000e+000 5.675384e-001 -1.538381e+000
    outer loop
      vertex   1.000000e+001 -6.420395e+000 1.010074e+001
      vertex   -1.000000e+001 -6.420395e+000 1.010074e+001
      vertex   -1.000000e+001 -3.301416e+000 1.125139e+001
    endloop
  endfacet
  facet normal 0.000000e+000 5.675384e-001 -1.538381e+000
    outer loop
      vertex   -1.000000e+001 -3.301416e+000 1.125139e+001
      vertex   1.000000e+001 -3.301416e+000 1.125139e+001
      vertex   1.000000e+001 -6.420395e+000 1.010074e+001
    endloop
  endfacet
  facet normal -0.000000e+000 -1.269670e+000 -1.747548e+000
    outer loop
      vertex   1.000000e+001 6.420395e+000 1.010074e+001
      vertex   -1.000000e+001 6.420395e+000 1.010074e+001
      vertex   -1.000000e+001 1.000000e+001 7.500000e+000
    endloop
  endfacet
  facet normal 0.000000e+000 -1.269670e+000 -1.747548e+000
    outer loop
      vertex   -1.000000e+001 1.000000e+001 7.500000e+000
      vertex   1.000000e+001 1.000000e+001 7.500000e+000
      vertex   1.000000e+001 6.420395e+000 1.010074e+001
    endloop
  endfacet
  facet normal 6.938894e-017 -3.414320e+000 -9.254929e+000
    outer loop
      vertex   -1.000000e+001 3.301416e+000 1.125139e+001
      vertex   -1.000000e+001 6.420395e+000 1.010074e+001
      vertex   1.000000e+001 6.420395e+000 1.010074e+001
    endloop
  endfacet
  facet normal 6.938894e-017 -3.414320e+000 -9.254929e+000
    outer loop
      vertex   1.000000e+001 6.420395e+000 1.010074e+001
      vertex   1.000000e+001 3.301416e+000 1.125139e+001
      vertex   -1.000000e+001 3.301416e+000 1.125139e+001
    endloop
  endfacet
  facet normal 0.000000e+000 1.881207e-001 -1.360095e+000
    outer loop
      vertex   1.000000e+001 -3.301416e+000 1.125139e+001
      vertex   -1.000000e+001 -3.301416e+000 1.125139e+001
      vertex   -1.000000e+001 -5.552176e-001 1.163123e+001
    endloop
  endfacet
  facet normal 0.000000e+000 1.881207e-001 -1.360095e+000
    outer loop
      vertex   -1.000000e+001 -5.552176e-001 1.163123e+001
      vertex   1.000000e+001 -5.552176e-001 1.163123e+001
      vertex   1.000000e+001 -3.301416e+000 1.125139e+001
    endloop
  endfacet
  facet normal 0.000000e+000 -9.363292e+000 0.000000e+000
    outer loop
      vertex   -1.000000e+001 1.000000e+001 7.500000e+000
      vertex   -1.000000e+001 1.000000e+001 4.440892e-015
      vertex   1.000000e+001 1.000000e+001 0.000000e+000
    endloop
  endfacet
  facet normal 0.000000e+000 -9.363292e+000 0.000000e+000
    outer loop
      vertex   1.000000e+001 1.000000e+001 0.000000e+000
      vertex   1.000000e+001 1.000000e+001 7.500000e+000
      vertex   -1.000000e+001 1.000000e+001 7.500000e+000
    endloop
  endfacet
  facet normal 5.547002e+000 0.000000e+000 0.000000e+000
    outer loop
      vertex   1.000000e+001 -1.000000e+001 7.500000e+000
      vertex   1.000000e+001 -1.500000e+001 0.000000e+000
      vertex   1.000000e+001 -1.000000e+001 0.000000e+000
    endloop
  endfacet
  facet normal 9.486834e+000 0.000000e+000 0.000000e+000
    outer loop
      vertex   1.000000e+001 1.000000e+001 0.000000e+000
      vertex   1.000000e+001 1.500000e+001 0.000000e+000
      vertex   1.000000e+001 1.500000e+001 1.500000e+001
    endloop
  endfacet
  facet normal 9.230769e+000 0.000000e+000 0.000000e+000
    outer loop
      vertex   1.000000e+001 -1.000000e+001 7.500000e+000
      vertex   1.000000e+001 -1.500000e+001 1.500000e+001
      vertex   1.000000e+001 -1.500000e+001 0.000000e+000
    endloop
  endfacet
  facet normal 5.547002e+000 0.000000e+000 0.000000e+000
    outer loop
      vertex   1.000000e+001 1.000000e+001 7.500000e+000
      vertex   1.000000e+001 1.000000e+001 0.000000e+000
      vertex   1.000000e+001 1.500000e+001 1.500000e+001
    endloop
  endfacet
  facet normal 9.991874e+000 0.000000e+000 0.000000e+000
    outer loop
      vertex   1.000000e+001 -1.000000e+001 7.500000e+000
      vertex   1.000000e+001 -6.420395e+000 1.010074e+001
      vertex   1.000000e+001 -1.500000e+001 1.500000e+001
    endloop
  endfacet
  facet normal 9.116039e+000 0.000000e+000 0.000000e+000
    outer loop
      vertex   1.000000e+001 6.420395e+000 1.010074e+001
      vertex   1.000000e+001 1.000000e+001 7.500000e+000
      vertex   1.000000e+001 1.500000e+001 1.500000e+001
    endloop
  endfacet
  facet normal 7.657963e+000 0.000000e+000 0.000000e+000
    outer loop
      vertex   1.000000e+001 -6.420395e+000 1.010074e+001
      vertex   1.000000e+001 -3.301416e+000 1.125139e+001
      vertex   1.000000e+001 -1.500000e+001 1.500000e+001
    endloop
  endfacet
  facet normal 6.158972e+000 0.000000e+000 0.000000e+000
    outer loop
      vertex   1.000000e+001 3.301416e+000 1.125139e+001
      vertex   1.000000e+001 6.420395e+000 1.010074e+001
      vertex   1.000000e+001 1.500000e+001 1.500000e+001
    endloop
  endfacet
  facet normal 4.900326e+000 0.000000e+000 0.000000e+000
    outer loop
      vertex   1.000000e+001 -3.301416e+000 1.125139e+001
      vertex   1.000000e+001 1.500000e+001 1.500000e+001
      vertex   1.000000e+001 -1.500000e+001 1.500000e+001
    endloop
  endfacet
  facet normal 3.064373e+000 0.000000e+000 0.000000e+000
    outer loop
      vertex   1.000000e+001 -5.552176e-001 1.163123e+001
      vertex   1.000000e+001 3.301416e+000 1.125139e+001
      vertex   1.000000e+001 1.500000e+001 1.500000e+001
    endloop
  endfacet
  facet normal 6.454445e-001 0.000000e+000 0.000000e+000
    outer loop
      vertex   1.000000e+001 -3.301416e+000 1.125139e+001
      vertex   1.000000e+001 -5.552176e-001 1.163123e+001
      vertex   1.000000e+001 1.500000e+001 1.500000e+001
    endloop
  endfacet
  facet normal 0.000000e+000 9.363292e+000 0.000000e+000
    outer loop
      vertex   -1.000000e+001 -1.000000e+001 4.440892e-015
      vertex   -1.000000e+001 -1.000000e+001 7.500000e+000
      vertex   1.000000e+001 -1.000000e+001 7.500000e+000
    endloop
  endfacet
  facet normal 0.000000e+000 9.363292e+000 0.000000e+000
    outer loop
      vertex   1.000000e+001 -1.000000e+001 7.500000e+000
      vertex   1.000000e+001 -1.000000e+001 0.000000e+000
      vertex   -1.000000e+001 -1.000000e+001 4.440892e-015
    endloop
  endfacet
endsolid
