solid Created by stlwrite.m 07-Sep-2018 16:06:56
facet normal 0.0000000E+00 0.0000000E+00 -1.0000000E+00
outer loop
vertex -1.0000000E+01 -3.0000000E+01 1.5000000E+01
vertex 1.0000000E+01 3.0000000E+01 1.5000000E+01
vertex 1.0000000E+01 -3.0000000E+01 1.5000000E+01
endloop
endfacet
facet normal 0.0000000E+00 0.0000000E+00 -1.0000000E+00
outer loop
vertex -1.0000000E+01 3.0000000E+01 1.5000000E+01
vertex 1.0000000E+01 3.0000000E+01 1.5000000E+01
vertex -1.0000000E+01 -3.0000000E+01 1.5000000E+01
endloop
endfacet
facet normal -1.0000000E+00 0.0000000E+00 0.0000000E+00
outer loop
vertex -1.0000000E+01 -3.0000000E+01 2.0000000E+01
vertex -1.0000000E+01 3.0000000E+01 1.5000000E+01
vertex -1.0000000E+01 -3.0000000E+01 1.5000000E+01
endloop
endfacet
facet normal 1.0000000E+00 0.0000000E+00 0.0000000E+00
outer loop
vertex -1.0000000E+01 3.0000000E+01 2.0000000E+01
vertex -1.0000000E+01 -3.0000000E+01 2.0000000E+01
vertex -1.0000000E+01 3.0000000E+01 1.5000000E+01
endloop
endfacet
facet normal 1.0000000E+00 0.0000000E+00 0.0000000E+00
outer loop
vertex 1.0000000E+01 -3.0000000E+01 2.0000000E+01
vertex 1.0000000E+01 -3.0000000E+01 1.5000000E+01
vertex 1.0000000E+01 3.0000000E+01 1.5000000E+01
endloop
endfacet
facet normal 1.0000000E+00 0.0000000E+00 0.0000000E+00
outer loop
vertex 1.0000000E+01 3.0000000E+01 2.0000000E+01
vertex 1.0000000E+01 -3.0000000E+01 2.0000000E+01
vertex 1.0000000E+01 3.0000000E+01 1.5000000E+01
endloop
endfacet
facet normal 0.0000000E+00 1.0000000E+00 0.0000000E+00
outer loop
vertex -1.0000000E+01 -4.0000000E+00 1.2500000E+01
vertex -1.0000000E+01 -4.0000000E+00 1.5000000E+01
vertex 1.0000000E+01 -4.0000000E+00 1.5000000E+01
endloop
endfacet
facet normal 0.0000000E+00 1.0000000E+00 0.0000000E+00
outer loop
vertex -1.0000000E+01 -4.0000000E+00 1.2500000E+01
vertex 1.0000000E+01 -4.0000000E+00 1.5000000E+01
vertex 1.0000000E+01 -4.0000000E+00 1.2500000E+01
endloop
endfacet
facet normal 0.0000000E+00 -1.0000000E+00 0.0000000E+00
outer loop
vertex -1.0000000E+01 -4.0000000E+00 1.2500000E+01
vertex -5.0000000E+00 -4.0000000E+00 1.0000000E+01
vertex 1.0000000E+01 -4.0000000E+00 1.2500000E+01
endloop
endfacet
facet normal 0.0000000E+00 1.0000000E+00 0.0000000E+00
outer loop
vertex -5.0000000E+00 -4.0000000E+00 1.0000000E+01
vertex 1.0000000E+01 -4.0000000E+00 1.2500000E+01
vertex 5.0000000E+00 -4.0000000E+00 1.0000000E+01
endloop
endfacet
facet normal 0.0000000E+00 -1.0000000E+00 0.0000000E+00
outer loop
vertex -5.0000000E+00 -4.0000000E+00 1.0000000E+01
vertex -5.0000000E+00 -4.0000000E+00 0.0000000E+00
vertex 5.0000000E+00 -4.0000000E+00 1.0000000E+01
endloop
endfacet
facet normal 0.0000000E+00 1.0000000E+00 0.0000000E+00
outer loop
vertex -5.0000000E+00 -4.0000000E+00 0.0000000E+00
vertex 5.0000000E+00 -4.0000000E+00 1.0000000E+01
vertex 5.0000000E+00 -4.0000000E+00 0.0000000E+00
endloop
endfacet
facet normal 0.0000000E+00 1.0000000E+00 0.0000000E+00
outer loop
vertex -1.0000000E+01 4.0000000E+00 1.2500000E+01
vertex -1.0000000E+01 4.0000000E+00 1.5000000E+01
vertex 1.0000000E+01 4.0000000E+00 1.5000000E+01
endloop
endfacet
facet normal 0.0000000E+00 1.0000000E+00 0.0000000E+00
outer loop
vertex -1.0000000E+01 4.0000000E+00 1.2500000E+01
vertex 1.0000000E+01 4.0000000E+00 1.5000000E+01
vertex 1.0000000E+01 4.0000000E+00 1.2500000E+01
endloop
endfacet
facet normal 0.0000000E+00 -1.0000000E+00 0.0000000E+00
outer loop
vertex -1.0000000E+01 4.0000000E+00 1.2500000E+01
vertex -5.0000000E+00 4.0000000E+00 1.0000000E+01
vertex 1.0000000E+01 4.0000000E+00 1.2500000E+01
endloop
endfacet
facet normal 0.0000000E+00 1.0000000E+00 0.0000000E+00
outer loop
vertex -5.0000000E+00 4.0000000E+00 1.0000000E+01
vertex 1.0000000E+01 4.0000000E+00 1.2500000E+01
vertex 5.0000000E+00 4.0000000E+00 1.0000000E+01
endloop
endfacet
facet normal 0.0000000E+00 -1.0000000E+00 0.0000000E+00
outer loop
vertex -5.0000000E+00 4.0000000E+00 1.0000000E+01
vertex -5.0000000E+00 4.0000000E+00 0.0000000E+00
vertex 5.0000000E+00 4.0000000E+00 1.0000000E+01
endloop
endfacet
facet normal 0.0000000E+00 1.0000000E+00 0.0000000E+00
outer loop
vertex -5.0000000E+00 4.0000000E+00 0.0000000E+00
vertex 5.0000000E+00 4.0000000E+00 1.0000000E+01
vertex 5.0000000E+00 4.0000000E+00 0.0000000E+00
endloop
endfacet
facet normal 1.0000000E+00 -0.0000000E+00 0.0000000E+00
outer loop
vertex 1.0000000E+01 -4.0000000E+00 1.5000000E+01
vertex 1.0000000E+01 -4.0000000E+00 1.2500000E+01
vertex 1.0000000E+01 4.0000000E+00 1.5000000E+01
endloop
endfacet
facet normal -1.0000000E+00 0.0000000E+00 0.0000000E+00
outer loop
vertex 1.0000000E+01 -4.0000000E+00 1.2500000E+01
vertex 1.0000000E+01 4.0000000E+00 1.5000000E+01
vertex 1.0000000E+01 4.0000000E+00 1.2500000E+01
endloop
endfacet
facet normal 4.4721362E-01 0.0000000E+00 -8.9442724E-01
outer loop
vertex 1.0000000E+01 -4.0000000E+00 1.2500000E+01
vertex 5.0000000E+00 -4.0000000E+00 1.0000000E+01
vertex 1.0000000E+01 4.0000000E+00 1.2500000E+01
endloop
endfacet
facet normal -4.4721362E-01 0.0000000E+00 8.9442724E-01
outer loop
vertex 5.0000000E+00 -4.0000000E+00 1.0000000E+01
vertex 1.0000000E+01 4.0000000E+00 1.2500000E+01
vertex 5.0000000E+00 4.0000000E+00 1.0000000E+01
endloop
endfacet
facet normal 1.0000000E+00 -0.0000000E+00 0.0000000E+00
outer loop
vertex 5.0000000E+00 -4.0000000E+00 1.0000000E+01
vertex 5.0000000E+00 -4.0000000E+00 0.0000000E+00
vertex 5.0000000E+00 4.0000000E+00 1.0000000E+01
endloop
endfacet
facet normal -1.0000000E+00 0.0000000E+00 0.0000000E+00
outer loop
vertex 5.0000000E+00 -4.0000000E+00 0.0000000E+00
vertex 5.0000000E+00 4.0000000E+00 1.0000000E+01
vertex 5.0000000E+00 4.0000000E+00 0.0000000E+00
endloop
endfacet
facet normal 1.0000000E+00 -0.0000000E+00 0.0000000E+00
outer loop
vertex -1.0000000E+01 -4.0000000E+00 1.5000000E+01
vertex -1.0000000E+01 -4.0000000E+00 1.2500000E+01
vertex -1.0000000E+01 4.0000000E+00 1.5000000E+01
endloop
endfacet
facet normal -1.0000000E+00 0.0000000E+00 0.0000000E+00
outer loop
vertex -1.0000000E+01 -4.0000000E+00 1.2500000E+01
vertex -1.0000000E+01 4.0000000E+00 1.5000000E+01
vertex -1.0000000E+01 4.0000000E+00 1.2500000E+01
endloop
endfacet
facet normal 4.4721362E-01 -0.0000000E+00 8.9442724E-01
outer loop
vertex -1.0000000E+01 -4.0000000E+00 1.2500000E+01
vertex -5.0000000E+00 -4.0000000E+00 1.0000000E+01
vertex -1.0000000E+01 4.0000000E+00 1.2500000E+01
endloop
endfacet
facet normal -4.4721362E-01 0.0000000E+00 -8.9442724E-01
outer loop
vertex -5.0000000E+00 -4.0000000E+00 1.0000000E+01
vertex -1.0000000E+01 4.0000000E+00 1.2500000E+01
vertex -5.0000000E+00 4.0000000E+00 1.0000000E+01
endloop
endfacet
facet normal 1.0000000E+00 -0.0000000E+00 0.0000000E+00
outer loop
vertex -5.0000000E+00 -4.0000000E+00 1.0000000E+01
vertex -5.0000000E+00 -4.0000000E+00 0.0000000E+00
vertex -5.0000000E+00 4.0000000E+00 1.0000000E+01
endloop
endfacet
facet normal -1.0000000E+00 0.0000000E+00 0.0000000E+00
outer loop
vertex -5.0000000E+00 -4.0000000E+00 0.0000000E+00
vertex -5.0000000E+00 4.0000000E+00 1.0000000E+01
vertex -5.0000000E+00 4.0000000E+00 0.0000000E+00
endloop
endfacet
facet normal 0.0000000E+00 0.0000000E+00 1.0000000E+00
outer loop
vertex -5.0000000E+00 -4.0000000E+00 0.0000000E+00
vertex 5.0000000E+00 -4.0000000E+00 0.0000000E+00
vertex -5.0000000E+00 4.0000000E+00 0.0000000E+00
endloop
endfacet
facet normal 0.0000000E+00 0.0000000E+00 -1.0000000E+00
outer loop
vertex 5.0000000E+00 -4.0000000E+00 0.0000000E+00
vertex -5.0000000E+00 4.0000000E+00 0.0000000E+00
vertex 5.0000000E+00 4.0000000E+00 0.0000000E+00
endloop
endfacet
endsolid Created by stlwrite.m 07-Sep-2018 16:06:56
