solid Created by stlwrite.m 13-Jan-2019 20:26:48
facet normal 0.0000000E+00 0.0000000E+00 -1.0000000E+00
outer loop
vertex -5.0000000E+00 -2.0000000E+01 7.5000000E+00
vertex 5.0000000E+00 2.0000000E+01 7.5000000E+00
vertex 5.0000000E+00 -2.0000000E+01 7.5000000E+00
endloop
endfacet
facet normal 0.0000000E+00 0.0000000E+00 -1.0000000E+00
outer loop
vertex -5.0000000E+00 2.0000000E+01 7.5000000E+00
vertex 5.0000000E+00 2.0000000E+01 7.5000000E+00
vertex -5.0000000E+00 -2.0000000E+01 7.5000000E+00
endloop
endfacet
facet normal -1.0000000E+00 0.0000000E+00 0.0000000E+00
outer loop
vertex -5.0000000E+00 -2.0000000E+01 1.0000000E+01
vertex -5.0000000E+00 2.0000000E+01 7.5000000E+00
vertex -5.0000000E+00 -2.0000000E+01 7.5000000E+00
endloop
endfacet
facet normal 1.0000000E+00 0.0000000E+00 0.0000000E+00
outer loop
vertex -5.0000000E+00 2.0000000E+01 1.0000000E+01
vertex -5.0000000E+00 -2.0000000E+01 1.0000000E+01
vertex -5.0000000E+00 2.0000000E+01 7.5000000E+00
endloop
endfacet
facet normal 1.0000000E+00 0.0000000E+00 0.0000000E+00
outer loop
vertex 5.0000000E+00 -2.0000000E+01 1.0000000E+01
vertex 5.0000000E+00 -2.0000000E+01 7.5000000E+00
vertex 5.0000000E+00 2.0000000E+01 7.5000000E+00
endloop
endfacet
facet normal 1.0000000E+00 0.0000000E+00 0.0000000E+00
outer loop
vertex 5.0000000E+00 2.0000000E+01 1.0000000E+01
vertex 5.0000000E+00 -2.0000000E+01 1.0000000E+01
vertex 5.0000000E+00 2.0000000E+01 7.5000000E+00
endloop
endfacet
facet normal 0.0000000E+00 1.0000000E+00 0.0000000E+00
outer loop
vertex -5.0000000E+00 -2.0000000E+00 6.2500000E+00
vertex -5.0000000E+00 -2.0000000E+00 7.5000000E+00
vertex 5.0000000E+00 -2.0000000E+00 7.5000000E+00
endloop
endfacet
facet normal 0.0000000E+00 1.0000000E+00 0.0000000E+00
outer loop
vertex -5.0000000E+00 -2.0000000E+00 6.2500000E+00
vertex 5.0000000E+00 -2.0000000E+00 7.5000000E+00
vertex 5.0000000E+00 -2.0000000E+00 6.2500000E+00
endloop
endfacet
facet normal 0.0000000E+00 -1.0000000E+00 0.0000000E+00
outer loop
vertex -5.0000000E+00 -2.0000000E+00 6.2500000E+00
vertex -2.5000000E+00 -2.0000000E+00 5.0000000E+00
vertex 5.0000000E+00 -2.0000000E+00 6.2500000E+00
endloop
endfacet
facet normal 0.0000000E+00 1.0000000E+00 0.0000000E+00
outer loop
vertex -2.5000000E+00 -2.0000000E+00 5.0000000E+00
vertex 5.0000000E+00 -2.0000000E+00 6.2500000E+00
vertex 2.5000000E+00 -2.0000000E+00 5.0000000E+00
endloop
endfacet
facet normal 0.0000000E+00 -1.0000000E+00 0.0000000E+00
outer loop
vertex -2.5000000E+00 -2.0000000E+00 5.0000000E+00
vertex -2.5000000E+00 -2.0000000E+00 0.0000000E+00
vertex 2.5000000E+00 -2.0000000E+00 5.0000000E+00
endloop
endfacet
facet normal 0.0000000E+00 1.0000000E+00 0.0000000E+00
outer loop
vertex -2.5000000E+00 -2.0000000E+00 0.0000000E+00
vertex 2.5000000E+00 -2.0000000E+00 5.0000000E+00
vertex 2.5000000E+00 -2.0000000E+00 0.0000000E+00
endloop
endfacet
facet normal 0.0000000E+00 1.0000000E+00 0.0000000E+00
outer loop
vertex -5.0000000E+00 2.0000000E+00 6.2500000E+00
vertex -5.0000000E+00 2.0000000E+00 7.5000000E+00
vertex 5.0000000E+00 2.0000000E+00 7.5000000E+00
endloop
endfacet
facet normal 0.0000000E+00 1.0000000E+00 0.0000000E+00
outer loop
vertex -5.0000000E+00 2.0000000E+00 6.2500000E+00
vertex 5.0000000E+00 2.0000000E+00 7.5000000E+00
vertex 5.0000000E+00 2.0000000E+00 6.2500000E+00
endloop
endfacet
facet normal 0.0000000E+00 -1.0000000E+00 0.0000000E+00
outer loop
vertex -5.0000000E+00 2.0000000E+00 6.2500000E+00
vertex -2.5000000E+00 2.0000000E+00 5.0000000E+00
vertex 5.0000000E+00 2.0000000E+00 6.2500000E+00
endloop
endfacet
facet normal 0.0000000E+00 1.0000000E+00 0.0000000E+00
outer loop
vertex -2.5000000E+00 2.0000000E+00 5.0000000E+00
vertex 5.0000000E+00 2.0000000E+00 6.2500000E+00
vertex 2.5000000E+00 2.0000000E+00 5.0000000E+00
endloop
endfacet
facet normal 0.0000000E+00 -1.0000000E+00 0.0000000E+00
outer loop
vertex -2.5000000E+00 2.0000000E+00 5.0000000E+00
vertex -2.5000000E+00 2.0000000E+00 0.0000000E+00
vertex 2.5000000E+00 2.0000000E+00 5.0000000E+00
endloop
endfacet
facet normal 0.0000000E+00 1.0000000E+00 0.0000000E+00
outer loop
vertex -2.5000000E+00 2.0000000E+00 0.0000000E+00
vertex 2.5000000E+00 2.0000000E+00 5.0000000E+00
vertex 2.5000000E+00 2.0000000E+00 0.0000000E+00
endloop
endfacet
facet normal 1.0000000E+00 -0.0000000E+00 0.0000000E+00
outer loop
vertex 5.0000000E+00 -2.0000000E+00 7.5000000E+00
vertex 5.0000000E+00 -2.0000000E+00 6.2500000E+00
vertex 5.0000000E+00 2.0000000E+00 7.5000000E+00
endloop
endfacet
facet normal -1.0000000E+00 0.0000000E+00 0.0000000E+00
outer loop
vertex 5.0000000E+00 -2.0000000E+00 6.2500000E+00
vertex 5.0000000E+00 2.0000000E+00 7.5000000E+00
vertex 5.0000000E+00 2.0000000E+00 6.2500000E+00
endloop
endfacet
facet normal 4.4721362E-01 0.0000000E+00 -8.9442724E-01
outer loop
vertex 5.0000000E+00 -2.0000000E+00 6.2500000E+00
vertex 2.5000000E+00 -2.0000000E+00 5.0000000E+00
vertex 5.0000000E+00 2.0000000E+00 6.2500000E+00
endloop
endfacet
facet normal -4.4721362E-01 0.0000000E+00 8.9442724E-01
outer loop
vertex 2.5000000E+00 -2.0000000E+00 5.0000000E+00
vertex 5.0000000E+00 2.0000000E+00 6.2500000E+00
vertex 2.5000000E+00 2.0000000E+00 5.0000000E+00
endloop
endfacet
facet normal 1.0000000E+00 -0.0000000E+00 0.0000000E+00
outer loop
vertex 2.5000000E+00 -2.0000000E+00 5.0000000E+00
vertex 2.5000000E+00 -2.0000000E+00 0.0000000E+00
vertex 2.5000000E+00 2.0000000E+00 5.0000000E+00
endloop
endfacet
facet normal -1.0000000E+00 0.0000000E+00 0.0000000E+00
outer loop
vertex 2.5000000E+00 -2.0000000E+00 0.0000000E+00
vertex 2.5000000E+00 2.0000000E+00 5.0000000E+00
vertex 2.5000000E+00 2.0000000E+00 0.0000000E+00
endloop
endfacet
facet normal 1.0000000E+00 -0.0000000E+00 0.0000000E+00
outer loop
vertex -5.0000000E+00 -2.0000000E+00 7.5000000E+00
vertex -5.0000000E+00 -2.0000000E+00 6.2500000E+00
vertex -5.0000000E+00 2.0000000E+00 7.5000000E+00
endloop
endfacet
facet normal -1.0000000E+00 0.0000000E+00 0.0000000E+00
outer loop
vertex -5.0000000E+00 -2.0000000E+00 6.2500000E+00
vertex -5.0000000E+00 2.0000000E+00 7.5000000E+00
vertex -5.0000000E+00 2.0000000E+00 6.2500000E+00
endloop
endfacet
facet normal 4.4721362E-01 -0.0000000E+00 8.9442724E-01
outer loop
vertex -5.0000000E+00 -2.0000000E+00 6.2500000E+00
vertex -2.5000000E+00 -2.0000000E+00 5.0000000E+00
vertex -5.0000000E+00 2.0000000E+00 6.2500000E+00
endloop
endfacet
facet normal -4.4721362E-01 0.0000000E+00 -8.9442724E-01
outer loop
vertex -2.5000000E+00 -2.0000000E+00 5.0000000E+00
vertex -5.0000000E+00 2.0000000E+00 6.2500000E+00
vertex -2.5000000E+00 2.0000000E+00 5.0000000E+00
endloop
endfacet
facet normal 1.0000000E+00 -0.0000000E+00 0.0000000E+00
outer loop
vertex -2.5000000E+00 -2.0000000E+00 5.0000000E+00
vertex -2.5000000E+00 -2.0000000E+00 0.0000000E+00
vertex -2.5000000E+00 2.0000000E+00 5.0000000E+00
endloop
endfacet
facet normal -1.0000000E+00 0.0000000E+00 0.0000000E+00
outer loop
vertex -2.5000000E+00 -2.0000000E+00 0.0000000E+00
vertex -2.5000000E+00 2.0000000E+00 5.0000000E+00
vertex -2.5000000E+00 2.0000000E+00 0.0000000E+00
endloop
endfacet
facet normal 0.0000000E+00 0.0000000E+00 1.0000000E+00
outer loop
vertex -2.5000000E+00 -2.0000000E+00 0.0000000E+00
vertex 2.5000000E+00 -2.0000000E+00 0.0000000E+00
vertex -2.5000000E+00 2.0000000E+00 0.0000000E+00
endloop
endfacet
facet normal 0.0000000E+00 0.0000000E+00 -1.0000000E+00
outer loop
vertex 2.5000000E+00 -2.0000000E+00 0.0000000E+00
vertex -2.5000000E+00 2.0000000E+00 0.0000000E+00
vertex 2.5000000E+00 2.0000000E+00 0.0000000E+00
endloop
endfacet
facet normal 0.0000000E+00 0.0000000E+00 -1.0000000E+00
outer loop
vertex -5.0000000E+00 2.0000000E+01 7.5000000E+00
vertex 5.0000000E+00 6.0000000E+01 7.5000000E+00
vertex 5.0000000E+00 2.0000000E+01 7.5000000E+00
endloop
endfacet
facet normal 0.0000000E+00 0.0000000E+00 -1.0000000E+00
outer loop
vertex -5.0000000E+00 6.0000000E+01 7.5000000E+00
vertex 5.0000000E+00 6.0000000E+01 7.5000000E+00
vertex -5.0000000E+00 2.0000000E+01 7.5000000E+00
endloop
endfacet
facet normal -1.0000000E+00 0.0000000E+00 0.0000000E+00
outer loop
vertex -5.0000000E+00 2.0000000E+01 1.0000000E+01
vertex -5.0000000E+00 6.0000000E+01 7.5000000E+00
vertex -5.0000000E+00 2.0000000E+01 7.5000000E+00
endloop
endfacet
facet normal 1.0000000E+00 0.0000000E+00 0.0000000E+00
outer loop
vertex -5.0000000E+00 6.0000000E+01 1.0000000E+01
vertex -5.0000000E+00 2.0000000E+01 1.0000000E+01
vertex -5.0000000E+00 6.0000000E+01 7.5000000E+00
endloop
endfacet
facet normal 1.0000000E+00 0.0000000E+00 0.0000000E+00
outer loop
vertex 5.0000000E+00 2.0000000E+01 1.0000000E+01
vertex 5.0000000E+00 2.0000000E+01 7.5000000E+00
vertex 5.0000000E+00 6.0000000E+01 7.5000000E+00
endloop
endfacet
facet normal 1.0000000E+00 0.0000000E+00 0.0000000E+00
outer loop
vertex 5.0000000E+00 6.0000000E+01 1.0000000E+01
vertex 5.0000000E+00 2.0000000E+01 1.0000000E+01
vertex 5.0000000E+00 6.0000000E+01 7.5000000E+00
endloop
endfacet
facet normal 0.0000000E+00 1.0000000E+00 0.0000000E+00
outer loop
vertex -5.0000000E+00 3.8000000E+01 6.2500000E+00
vertex -5.0000000E+00 3.8000000E+01 7.5000000E+00
vertex 5.0000000E+00 3.8000000E+01 7.5000000E+00
endloop
endfacet
facet normal 0.0000000E+00 1.0000000E+00 0.0000000E+00
outer loop
vertex -5.0000000E+00 3.8000000E+01 6.2500000E+00
vertex 5.0000000E+00 3.8000000E+01 7.5000000E+00
vertex 5.0000000E+00 3.8000000E+01 6.2500000E+00
endloop
endfacet
facet normal 0.0000000E+00 -1.0000000E+00 0.0000000E+00
outer loop
vertex -5.0000000E+00 3.8000000E+01 6.2500000E+00
vertex -2.5000000E+00 3.8000000E+01 5.0000000E+00
vertex 5.0000000E+00 3.8000000E+01 6.2500000E+00
endloop
endfacet
facet normal 0.0000000E+00 1.0000000E+00 0.0000000E+00
outer loop
vertex -2.5000000E+00 3.8000000E+01 5.0000000E+00
vertex 5.0000000E+00 3.8000000E+01 6.2500000E+00
vertex 2.5000000E+00 3.8000000E+01 5.0000000E+00
endloop
endfacet
facet normal 0.0000000E+00 -1.0000000E+00 0.0000000E+00
outer loop
vertex -2.5000000E+00 3.8000000E+01 5.0000000E+00
vertex -2.5000000E+00 3.8000000E+01 0.0000000E+00
vertex 2.5000000E+00 3.8000000E+01 5.0000000E+00
endloop
endfacet
facet normal 0.0000000E+00 1.0000000E+00 0.0000000E+00
outer loop
vertex -2.5000000E+00 3.8000000E+01 0.0000000E+00
vertex 2.5000000E+00 3.8000000E+01 5.0000000E+00
vertex 2.5000000E+00 3.8000000E+01 0.0000000E+00
endloop
endfacet
facet normal 0.0000000E+00 1.0000000E+00 0.0000000E+00
outer loop
vertex -5.0000000E+00 4.2000000E+01 6.2500000E+00
vertex -5.0000000E+00 4.2000000E+01 7.5000000E+00
vertex 5.0000000E+00 4.2000000E+01 7.5000000E+00
endloop
endfacet
facet normal 0.0000000E+00 1.0000000E+00 0.0000000E+00
outer loop
vertex -5.0000000E+00 4.2000000E+01 6.2500000E+00
vertex 5.0000000E+00 4.2000000E+01 7.5000000E+00
vertex 5.0000000E+00 4.2000000E+01 6.2500000E+00
endloop
endfacet
facet normal 0.0000000E+00 -1.0000000E+00 0.0000000E+00
outer loop
vertex -5.0000000E+00 4.2000000E+01 6.2500000E+00
vertex -2.5000000E+00 4.2000000E+01 5.0000000E+00
vertex 5.0000000E+00 4.2000000E+01 6.2500000E+00
endloop
endfacet
facet normal 0.0000000E+00 1.0000000E+00 0.0000000E+00
outer loop
vertex -2.5000000E+00 4.2000000E+01 5.0000000E+00
vertex 5.0000000E+00 4.2000000E+01 6.2500000E+00
vertex 2.5000000E+00 4.2000000E+01 5.0000000E+00
endloop
endfacet
facet normal 0.0000000E+00 -1.0000000E+00 0.0000000E+00
outer loop
vertex -2.5000000E+00 4.2000000E+01 5.0000000E+00
vertex -2.5000000E+00 4.2000000E+01 0.0000000E+00
vertex 2.5000000E+00 4.2000000E+01 5.0000000E+00
endloop
endfacet
facet normal 0.0000000E+00 1.0000000E+00 0.0000000E+00
outer loop
vertex -2.5000000E+00 4.2000000E+01 0.0000000E+00
vertex 2.5000000E+00 4.2000000E+01 5.0000000E+00
vertex 2.5000000E+00 4.2000000E+01 0.0000000E+00
endloop
endfacet
facet normal 1.0000000E+00 -0.0000000E+00 0.0000000E+00
outer loop
vertex 5.0000000E+00 3.8000000E+01 7.5000000E+00
vertex 5.0000000E+00 3.8000000E+01 6.2500000E+00
vertex 5.0000000E+00 4.2000000E+01 7.5000000E+00
endloop
endfacet
facet normal -1.0000000E+00 0.0000000E+00 0.0000000E+00
outer loop
vertex 5.0000000E+00 3.8000000E+01 6.2500000E+00
vertex 5.0000000E+00 4.2000000E+01 7.5000000E+00
vertex 5.0000000E+00 4.2000000E+01 6.2500000E+00
endloop
endfacet
facet normal 4.4721362E-01 0.0000000E+00 -8.9442724E-01
outer loop
vertex 5.0000000E+00 3.8000000E+01 6.2500000E+00
vertex 2.5000000E+00 3.8000000E+01 5.0000000E+00
vertex 5.0000000E+00 4.2000000E+01 6.2500000E+00
endloop
endfacet
facet normal -4.4721362E-01 0.0000000E+00 8.9442724E-01
outer loop
vertex 2.5000000E+00 3.8000000E+01 5.0000000E+00
vertex 5.0000000E+00 4.2000000E+01 6.2500000E+00
vertex 2.5000000E+00 4.2000000E+01 5.0000000E+00
endloop
endfacet
facet normal 1.0000000E+00 -0.0000000E+00 0.0000000E+00
outer loop
vertex 2.5000000E+00 3.8000000E+01 5.0000000E+00
vertex 2.5000000E+00 3.8000000E+01 0.0000000E+00
vertex 2.5000000E+00 4.2000000E+01 5.0000000E+00
endloop
endfacet
facet normal -1.0000000E+00 0.0000000E+00 0.0000000E+00
outer loop
vertex 2.5000000E+00 3.8000000E+01 0.0000000E+00
vertex 2.5000000E+00 4.2000000E+01 5.0000000E+00
vertex 2.5000000E+00 4.2000000E+01 0.0000000E+00
endloop
endfacet
facet normal 1.0000000E+00 -0.0000000E+00 0.0000000E+00
outer loop
vertex -5.0000000E+00 3.8000000E+01 7.5000000E+00
vertex -5.0000000E+00 3.8000000E+01 6.2500000E+00
vertex -5.0000000E+00 4.2000000E+01 7.5000000E+00
endloop
endfacet
facet normal -1.0000000E+00 0.0000000E+00 0.0000000E+00
outer loop
vertex -5.0000000E+00 3.8000000E+01 6.2500000E+00
vertex -5.0000000E+00 4.2000000E+01 7.5000000E+00
vertex -5.0000000E+00 4.2000000E+01 6.2500000E+00
endloop
endfacet
facet normal 4.4721362E-01 -0.0000000E+00 8.9442724E-01
outer loop
vertex -5.0000000E+00 3.8000000E+01 6.2500000E+00
vertex -2.5000000E+00 3.8000000E+01 5.0000000E+00
vertex -5.0000000E+00 4.2000000E+01 6.2500000E+00
endloop
endfacet
facet normal -4.4721362E-01 0.0000000E+00 -8.9442724E-01
outer loop
vertex -2.5000000E+00 3.8000000E+01 5.0000000E+00
vertex -5.0000000E+00 4.2000000E+01 6.2500000E+00
vertex -2.5000000E+00 4.2000000E+01 5.0000000E+00
endloop
endfacet
facet normal 1.0000000E+00 -0.0000000E+00 0.0000000E+00
outer loop
vertex -2.5000000E+00 3.8000000E+01 5.0000000E+00
vertex -2.5000000E+00 3.8000000E+01 0.0000000E+00
vertex -2.5000000E+00 4.2000000E+01 5.0000000E+00
endloop
endfacet
facet normal -1.0000000E+00 0.0000000E+00 0.0000000E+00
outer loop
vertex -2.5000000E+00 3.8000000E+01 0.0000000E+00
vertex -2.5000000E+00 4.2000000E+01 5.0000000E+00
vertex -2.5000000E+00 4.2000000E+01 0.0000000E+00
endloop
endfacet
facet normal 0.0000000E+00 0.0000000E+00 1.0000000E+00
outer loop
vertex -2.5000000E+00 3.8000000E+01 0.0000000E+00
vertex 2.5000000E+00 3.8000000E+01 0.0000000E+00
vertex -2.5000000E+00 4.2000000E+01 0.0000000E+00
endloop
endfacet
facet normal 0.0000000E+00 0.0000000E+00 -1.0000000E+00
outer loop
vertex 2.5000000E+00 3.8000000E+01 0.0000000E+00
vertex -2.5000000E+00 4.2000000E+01 0.0000000E+00
vertex 2.5000000E+00 4.2000000E+01 0.0000000E+00
endloop
endfacet
facet normal 0.0000000E+00 0.0000000E+00 -1.0000000E+00
outer loop
vertex -5.0000000E+00 -6.0000000E+01 7.5000000E+00
vertex 5.0000000E+00 -2.0000000E+01 7.5000000E+00
vertex 5.0000000E+00 -6.0000000E+01 7.5000000E+00
endloop
endfacet
facet normal 0.0000000E+00 0.0000000E+00 -1.0000000E+00
outer loop
vertex -5.0000000E+00 -2.0000000E+01 7.5000000E+00
vertex 5.0000000E+00 -2.0000000E+01 7.5000000E+00
vertex -5.0000000E+00 -6.0000000E+01 7.5000000E+00
endloop
endfacet
facet normal -1.0000000E+00 0.0000000E+00 0.0000000E+00
outer loop
vertex -5.0000000E+00 -6.0000000E+01 1.0000000E+01
vertex -5.0000000E+00 -2.0000000E+01 7.5000000E+00
vertex -5.0000000E+00 -6.0000000E+01 7.5000000E+00
endloop
endfacet
facet normal 1.0000000E+00 0.0000000E+00 0.0000000E+00
outer loop
vertex -5.0000000E+00 -2.0000000E+01 1.0000000E+01
vertex -5.0000000E+00 -6.0000000E+01 1.0000000E+01
vertex -5.0000000E+00 -2.0000000E+01 7.5000000E+00
endloop
endfacet
facet normal 1.0000000E+00 0.0000000E+00 0.0000000E+00
outer loop
vertex 5.0000000E+00 -6.0000000E+01 1.0000000E+01
vertex 5.0000000E+00 -6.0000000E+01 7.5000000E+00
vertex 5.0000000E+00 -2.0000000E+01 7.5000000E+00
endloop
endfacet
facet normal 1.0000000E+00 0.0000000E+00 0.0000000E+00
outer loop
vertex 5.0000000E+00 -2.0000000E+01 1.0000000E+01
vertex 5.0000000E+00 -6.0000000E+01 1.0000000E+01
vertex 5.0000000E+00 -2.0000000E+01 7.5000000E+00
endloop
endfacet
facet normal 0.0000000E+00 1.0000000E+00 0.0000000E+00
outer loop
vertex -5.0000000E+00 -4.2000000E+01 6.2500000E+00
vertex -5.0000000E+00 -4.2000000E+01 7.5000000E+00
vertex 5.0000000E+00 -4.2000000E+01 7.5000000E+00
endloop
endfacet
facet normal 0.0000000E+00 1.0000000E+00 0.0000000E+00
outer loop
vertex -5.0000000E+00 -4.2000000E+01 6.2500000E+00
vertex 5.0000000E+00 -4.2000000E+01 7.5000000E+00
vertex 5.0000000E+00 -4.2000000E+01 6.2500000E+00
endloop
endfacet
facet normal 0.0000000E+00 -1.0000000E+00 0.0000000E+00
outer loop
vertex -5.0000000E+00 -4.2000000E+01 6.2500000E+00
vertex -2.5000000E+00 -4.2000000E+01 5.0000000E+00
vertex 5.0000000E+00 -4.2000000E+01 6.2500000E+00
endloop
endfacet
facet normal 0.0000000E+00 1.0000000E+00 0.0000000E+00
outer loop
vertex -2.5000000E+00 -4.2000000E+01 5.0000000E+00
vertex 5.0000000E+00 -4.2000000E+01 6.2500000E+00
vertex 2.5000000E+00 -4.2000000E+01 5.0000000E+00
endloop
endfacet
facet normal 0.0000000E+00 -1.0000000E+00 0.0000000E+00
outer loop
vertex -2.5000000E+00 -4.2000000E+01 5.0000000E+00
vertex -2.5000000E+00 -4.2000000E+01 0.0000000E+00
vertex 2.5000000E+00 -4.2000000E+01 5.0000000E+00
endloop
endfacet
facet normal 0.0000000E+00 1.0000000E+00 0.0000000E+00
outer loop
vertex -2.5000000E+00 -4.2000000E+01 0.0000000E+00
vertex 2.5000000E+00 -4.2000000E+01 5.0000000E+00
vertex 2.5000000E+00 -4.2000000E+01 0.0000000E+00
endloop
endfacet
facet normal 0.0000000E+00 1.0000000E+00 0.0000000E+00
outer loop
vertex -5.0000000E+00 -3.8000000E+01 6.2500000E+00
vertex -5.0000000E+00 -3.8000000E+01 7.5000000E+00
vertex 5.0000000E+00 -3.8000000E+01 7.5000000E+00
endloop
endfacet
facet normal 0.0000000E+00 1.0000000E+00 0.0000000E+00
outer loop
vertex -5.0000000E+00 -3.8000000E+01 6.2500000E+00
vertex 5.0000000E+00 -3.8000000E+01 7.5000000E+00
vertex 5.0000000E+00 -3.8000000E+01 6.2500000E+00
endloop
endfacet
facet normal 0.0000000E+00 -1.0000000E+00 0.0000000E+00
outer loop
vertex -5.0000000E+00 -3.8000000E+01 6.2500000E+00
vertex -2.5000000E+00 -3.8000000E+01 5.0000000E+00
vertex 5.0000000E+00 -3.8000000E+01 6.2500000E+00
endloop
endfacet
facet normal 0.0000000E+00 1.0000000E+00 0.0000000E+00
outer loop
vertex -2.5000000E+00 -3.8000000E+01 5.0000000E+00
vertex 5.0000000E+00 -3.8000000E+01 6.2500000E+00
vertex 2.5000000E+00 -3.8000000E+01 5.0000000E+00
endloop
endfacet
facet normal 0.0000000E+00 -1.0000000E+00 0.0000000E+00
outer loop
vertex -2.5000000E+00 -3.8000000E+01 5.0000000E+00
vertex -2.5000000E+00 -3.8000000E+01 0.0000000E+00
vertex 2.5000000E+00 -3.8000000E+01 5.0000000E+00
endloop
endfacet
facet normal 0.0000000E+00 1.0000000E+00 0.0000000E+00
outer loop
vertex -2.5000000E+00 -3.8000000E+01 0.0000000E+00
vertex 2.5000000E+00 -3.8000000E+01 5.0000000E+00
vertex 2.5000000E+00 -3.8000000E+01 0.0000000E+00
endloop
endfacet
facet normal 1.0000000E+00 -0.0000000E+00 0.0000000E+00
outer loop
vertex 5.0000000E+00 -4.2000000E+01 7.5000000E+00
vertex 5.0000000E+00 -4.2000000E+01 6.2500000E+00
vertex 5.0000000E+00 -3.8000000E+01 7.5000000E+00
endloop
endfacet
facet normal -1.0000000E+00 0.0000000E+00 0.0000000E+00
outer loop
vertex 5.0000000E+00 -4.2000000E+01 6.2500000E+00
vertex 5.0000000E+00 -3.8000000E+01 7.5000000E+00
vertex 5.0000000E+00 -3.8000000E+01 6.2500000E+00
endloop
endfacet
facet normal 4.4721362E-01 0.0000000E+00 -8.9442724E-01
outer loop
vertex 5.0000000E+00 -4.2000000E+01 6.2500000E+00
vertex 2.5000000E+00 -4.2000000E+01 5.0000000E+00
vertex 5.0000000E+00 -3.8000000E+01 6.2500000E+00
endloop
endfacet
facet normal -4.4721362E-01 0.0000000E+00 8.9442724E-01
outer loop
vertex 2.5000000E+00 -4.2000000E+01 5.0000000E+00
vertex 5.0000000E+00 -3.8000000E+01 6.2500000E+00
vertex 2.5000000E+00 -3.8000000E+01 5.0000000E+00
endloop
endfacet
facet normal 1.0000000E+00 -0.0000000E+00 0.0000000E+00
outer loop
vertex 2.5000000E+00 -4.2000000E+01 5.0000000E+00
vertex 2.5000000E+00 -4.2000000E+01 0.0000000E+00
vertex 2.5000000E+00 -3.8000000E+01 5.0000000E+00
endloop
endfacet
facet normal -1.0000000E+00 0.0000000E+00 0.0000000E+00
outer loop
vertex 2.5000000E+00 -4.2000000E+01 0.0000000E+00
vertex 2.5000000E+00 -3.8000000E+01 5.0000000E+00
vertex 2.5000000E+00 -3.8000000E+01 0.0000000E+00
endloop
endfacet
facet normal 1.0000000E+00 -0.0000000E+00 0.0000000E+00
outer loop
vertex -5.0000000E+00 -4.2000000E+01 7.5000000E+00
vertex -5.0000000E+00 -4.2000000E+01 6.2500000E+00
vertex -5.0000000E+00 -3.8000000E+01 7.5000000E+00
endloop
endfacet
facet normal -1.0000000E+00 0.0000000E+00 0.0000000E+00
outer loop
vertex -5.0000000E+00 -4.2000000E+01 6.2500000E+00
vertex -5.0000000E+00 -3.8000000E+01 7.5000000E+00
vertex -5.0000000E+00 -3.8000000E+01 6.2500000E+00
endloop
endfacet
facet normal 4.4721362E-01 -0.0000000E+00 8.9442724E-01
outer loop
vertex -5.0000000E+00 -4.2000000E+01 6.2500000E+00
vertex -2.5000000E+00 -4.2000000E+01 5.0000000E+00
vertex -5.0000000E+00 -3.8000000E+01 6.2500000E+00
endloop
endfacet
facet normal -4.4721362E-01 0.0000000E+00 -8.9442724E-01
outer loop
vertex -2.5000000E+00 -4.2000000E+01 5.0000000E+00
vertex -5.0000000E+00 -3.8000000E+01 6.2500000E+00
vertex -2.5000000E+00 -3.8000000E+01 5.0000000E+00
endloop
endfacet
facet normal 1.0000000E+00 -0.0000000E+00 0.0000000E+00
outer loop
vertex -2.5000000E+00 -4.2000000E+01 5.0000000E+00
vertex -2.5000000E+00 -4.2000000E+01 0.0000000E+00
vertex -2.5000000E+00 -3.8000000E+01 5.0000000E+00
endloop
endfacet
facet normal -1.0000000E+00 0.0000000E+00 0.0000000E+00
outer loop
vertex -2.5000000E+00 -4.2000000E+01 0.0000000E+00
vertex -2.5000000E+00 -3.8000000E+01 5.0000000E+00
vertex -2.5000000E+00 -3.8000000E+01 0.0000000E+00
endloop
endfacet
facet normal 0.0000000E+00 0.0000000E+00 1.0000000E+00
outer loop
vertex -2.5000000E+00 -4.2000000E+01 0.0000000E+00
vertex 2.5000000E+00 -4.2000000E+01 0.0000000E+00
vertex -2.5000000E+00 -3.8000000E+01 0.0000000E+00
endloop
endfacet
facet normal 0.0000000E+00 0.0000000E+00 -1.0000000E+00
outer loop
vertex 2.5000000E+00 -4.2000000E+01 0.0000000E+00
vertex -2.5000000E+00 -3.8000000E+01 0.0000000E+00
vertex 2.5000000E+00 -3.8000000E+01 0.0000000E+00
endloop
endfacet
endsolid Created by stlwrite.m 13-Jan-2019 20:26:48
