solid ascii
  facet normal 4.472136e-001 0.000000e+000 -8.944272e-001
    outer loop
      vertex   5.000000e+000 4.000000e+000 1.000000e+001
      vertex   1.000000e+001 4.000000e+000 1.250000e+001
      vertex   5.000000e+000 -4.000000e+000 1.000000e+001
    endloop
  endfacet
  facet normal 4.472136e-001 0.000000e+000 -8.944272e-001
    outer loop
      vertex   5.000000e+000 -4.000000e+000 1.000000e+001
      vertex   1.000000e+001 4.000000e+000 1.250000e+001
      vertex   1.000000e+001 -4.000000e+000 1.250000e+001
    endloop
  endfacet
  facet normal 1.000000e+000 0.000000e+000 -8.881784e-017
    outer loop
      vertex   5.000000e+000 -4.000000e+000 1.000000e+001
      vertex   5.000000e+000 -4.000000e+000 0.000000e+000
      vertex   5.000000e+000 4.000000e+000 1.000000e+001
    endloop
  endfacet
  facet normal 1.000000e+000 0.000000e+000 -8.881784e-017
    outer loop
      vertex   5.000000e+000 4.000000e+000 1.000000e+001
      vertex   5.000000e+000 -4.000000e+000 0.000000e+000
      vertex   5.000000e+000 4.000000e+000 0.000000e+000
    endloop
  endfacet
  facet normal 0.000000e+000 -0.000000e+000 -1.000000e+000
    outer loop
      vertex   -1.000000e+001 -4.000000e+000 1.500000e+001
      vertex   1.000000e+001 -4.000000e+000 1.500000e+001
      vertex   -1.000000e+001 -1.500000e+001 1.500000e+001
    endloop
  endfacet
  facet normal 0.000000e+000 0.000000e+000 -1.000000e+000
    outer loop
      vertex   -1.000000e+001 -1.500000e+001 1.500000e+001
      vertex   1.000000e+001 -4.000000e+000 1.500000e+001
      vertex   1.000000e+001 -1.500000e+001 1.500000e+001
    endloop
  endfacet
  facet normal -4.472136e-001 0.000000e+000 -8.944272e-001
    outer loop
      vertex   -1.000000e+001 4.000000e+000 1.250000e+001
      vertex   -5.000000e+000 4.000000e+000 1.000000e+001
      vertex   -1.000000e+001 -4.000000e+000 1.250000e+001
    endloop
  endfacet
  facet normal -4.472136e-001 -0.000000e+000 -8.944272e-001
    outer loop
      vertex   -1.000000e+001 -4.000000e+000 1.250000e+001
      vertex   -5.000000e+000 4.000000e+000 1.000000e+001
      vertex   -5.000000e+000 -4.000000e+000 1.000000e+001
    endloop
  endfacet
  facet normal -1.000000e+000 0.000000e+000 8.881784e-017
    outer loop
      vertex   -5.000000e+000 4.000000e+000 1.000000e+001
      vertex   -5.000000e+000 4.000000e+000 0.000000e+000
      vertex   -5.000000e+000 -4.000000e+000 1.000000e+001
    endloop
  endfacet
  facet normal -1.000000e+000 0.000000e+000 8.881784e-017
    outer loop
      vertex   -5.000000e+000 -4.000000e+000 1.000000e+001
      vertex   -5.000000e+000 4.000000e+000 0.000000e+000
      vertex   -5.000000e+000 -4.000000e+000 0.000000e+000
    endloop
  endfacet
  facet normal 0.000000e+000 -1.000000e+000 -8.881784e-017
    outer loop
      vertex   5.000000e+000 -4.000000e+000 0.000000e+000
      vertex   5.000000e+000 -4.000000e+000 1.000000e+001
      vertex   -5.000000e+000 -4.000000e+000 0.000000e+000
    endloop
  endfacet
  facet normal -8.881784e-017 -1.000000e+000 0.000000e+000
    outer loop
      vertex   -5.000000e+000 -4.000000e+000 0.000000e+000
      vertex   5.000000e+000 -4.000000e+000 1.000000e+001
      vertex   -5.000000e+000 -4.000000e+000 1.000000e+001
    endloop
  endfacet
  facet normal -8.881784e-017 -1.000000e+000 2.664535e-016
    outer loop
      vertex   -5.000000e+000 -4.000000e+000 1.000000e+001
      vertex   5.000000e+000 -4.000000e+000 1.000000e+001
      vertex   1.000000e+001 -4.000000e+000 1.500000e+001
    endloop
  endfacet
  facet normal 0.000000e+000 -1.000000e+000 0.000000e+000
    outer loop
      vertex   -1.000000e+001 -4.000000e+000 1.500000e+001
      vertex   -5.000000e+000 -4.000000e+000 1.000000e+001
      vertex   1.000000e+001 -4.000000e+000 1.500000e+001
    endloop
  endfacet
  facet normal 3.552714e-016 -1.000000e+000 3.552714e-016
    outer loop
      vertex   -1.000000e+001 -4.000000e+000 1.500000e+001
      vertex   -1.000000e+001 -4.000000e+000 1.250000e+001
      vertex   -5.000000e+000 -4.000000e+000 1.000000e+001
    endloop
  endfacet
  facet normal 1.776357e-016 -1.000000e+000 0.000000e+000
    outer loop
      vertex   5.000000e+000 -4.000000e+000 1.000000e+001
      vertex   1.000000e+001 -4.000000e+000 1.250000e+001
      vertex   1.000000e+001 -4.000000e+000 1.500000e+001
    endloop
  endfacet
  facet normal -0.000000e+000 1.000000e+000 0.000000e+000
    outer loop
      vertex   -5.000000e+000 4.000000e+000 0.000000e+000
      vertex   -5.000000e+000 4.000000e+000 1.000000e+001
      vertex   5.000000e+000 4.000000e+000 0.000000e+000
    endloop
  endfacet
  facet normal 0.000000e+000 1.000000e+000 -0.000000e+000
    outer loop
      vertex   5.000000e+000 4.000000e+000 0.000000e+000
      vertex   -5.000000e+000 4.000000e+000 1.000000e+001
      vertex   5.000000e+000 4.000000e+000 1.000000e+001
    endloop
  endfacet
  facet normal 0.000000e+000 1.000000e+000 -0.000000e+000
    outer loop
      vertex   5.000000e+000 4.000000e+000 1.000000e+001
      vertex   -5.000000e+000 4.000000e+000 1.000000e+001
      vertex   1.000000e+001 4.000000e+000 1.500000e+001
    endloop
  endfacet
  facet normal 0.000000e+000 1.000000e+000 -0.000000e+000
    outer loop
      vertex   1.000000e+001 4.000000e+000 1.250000e+001
      vertex   5.000000e+000 4.000000e+000 1.000000e+001
      vertex   1.000000e+001 4.000000e+000 1.500000e+001
    endloop
  endfacet
  facet normal -0.000000e+000 1.000000e+000 0.000000e+000
    outer loop
      vertex   -1.000000e+001 4.000000e+000 1.250000e+001
      vertex   -1.000000e+001 4.000000e+000 1.500000e+001
      vertex   -5.000000e+000 4.000000e+000 1.000000e+001
    endloop
  endfacet
  facet normal 0.000000e+000 1.000000e+000 -0.000000e+000
    outer loop
      vertex   -5.000000e+000 4.000000e+000 1.000000e+001
      vertex   -1.000000e+001 4.000000e+000 1.500000e+001
      vertex   1.000000e+001 4.000000e+000 1.500000e+001
    endloop
  endfacet
  facet normal 0.000000e+000 0.000000e+000 -1.000000e+000
    outer loop
      vertex   1.000000e+001 4.000000e+000 1.500000e+001
      vertex   -1.000000e+001 4.000000e+000 1.500000e+001
      vertex   1.000000e+001 1.500000e+001 1.500000e+001
    endloop
  endfacet
  facet normal -0.000000e+000 0.000000e+000 -1.000000e+000
    outer loop
      vertex   1.000000e+001 1.500000e+001 1.500000e+001
      vertex   -1.000000e+001 4.000000e+000 1.500000e+001
      vertex   -1.000000e+001 1.500000e+001 1.500000e+001
    endloop
  endfacet
  facet normal 1.000000e+000 0.000000e+000 -3.552714e-016
    outer loop
      vertex   1.000000e+001 1.500000e+001 1.500000e+001
      vertex   1.000000e+001 1.500000e+001 2.000000e+001
      vertex   1.000000e+001 4.000000e+000 1.500000e+001
    endloop
  endfacet
  facet normal 1.000000e+000 0.000000e+000 -3.552714e-016
    outer loop
      vertex   1.000000e+001 4.000000e+000 1.500000e+001
      vertex   1.000000e+001 1.500000e+001 2.000000e+001
      vertex   1.000000e+001 -1.500000e+001 2.000000e+001
    endloop
  endfacet
  facet normal 1.000000e+000 0.000000e+000 -3.552714e-016
    outer loop
      vertex   1.000000e+001 -4.000000e+000 1.500000e+001
      vertex   1.000000e+001 -1.500000e+001 2.000000e+001
      vertex   1.000000e+001 -1.500000e+001 1.500000e+001
    endloop
  endfacet
  facet normal 1.000000e+000 0.000000e+000 -3.552714e-016
    outer loop
      vertex   1.000000e+001 -4.000000e+000 1.500000e+001
      vertex   1.000000e+001 4.000000e+000 1.500000e+001
      vertex   1.000000e+001 -1.500000e+001 2.000000e+001
    endloop
  endfacet
  facet normal 1.000000e+000 -0.000000e+000 0.000000e+000
    outer loop
      vertex   1.000000e+001 -4.000000e+000 1.500000e+001
      vertex   1.000000e+001 -4.000000e+000 1.250000e+001
      vertex   1.000000e+001 4.000000e+000 1.500000e+001
    endloop
  endfacet
  facet normal 1.000000e+000 -0.000000e+000 0.000000e+000
    outer loop
      vertex   1.000000e+001 4.000000e+000 1.500000e+001
      vertex   1.000000e+001 -4.000000e+000 1.250000e+001
      vertex   1.000000e+001 4.000000e+000 1.250000e+001
    endloop
  endfacet
  facet normal -1.000000e+000 0.000000e+000 0.000000e+000
    outer loop
      vertex   -1.000000e+001 -1.500000e+001 1.500000e+001
      vertex   -1.000000e+001 -1.500000e+001 2.000000e+001
      vertex   -1.000000e+001 -4.000000e+000 1.500000e+001
    endloop
  endfacet
  facet normal -1.000000e+000 0.000000e+000 0.000000e+000
    outer loop
      vertex   -1.000000e+001 -4.000000e+000 1.500000e+001
      vertex   -1.000000e+001 -1.500000e+001 2.000000e+001
      vertex   -1.000000e+001 4.000000e+000 1.500000e+001
    endloop
  endfacet
  facet normal -1.000000e+000 0.000000e+000 0.000000e+000
    outer loop
      vertex   -1.000000e+001 4.000000e+000 1.250000e+001
      vertex   -1.000000e+001 -4.000000e+000 1.500000e+001
      vertex   -1.000000e+001 4.000000e+000 1.500000e+001
    endloop
  endfacet
  facet normal -1.000000e+000 0.000000e+000 0.000000e+000
    outer loop
      vertex   -1.000000e+001 4.000000e+000 1.250000e+001
      vertex   -1.000000e+001 -4.000000e+000 1.250000e+001
      vertex   -1.000000e+001 -4.000000e+000 1.500000e+001
    endloop
  endfacet
  facet normal -1.000000e+000 0.000000e+000 -0.000000e+000
    outer loop
      vertex   -1.000000e+001 -1.500000e+001 2.000000e+001
      vertex   -1.000000e+001 1.500000e+001 2.000000e+001
      vertex   -1.000000e+001 4.000000e+000 1.500000e+001
    endloop
  endfacet
  facet normal -1.000000e+000 0.000000e+000 0.000000e+000
    outer loop
      vertex   -1.000000e+001 4.000000e+000 1.500000e+001
      vertex   -1.000000e+001 1.500000e+001 2.000000e+001
      vertex   -1.000000e+001 1.500000e+001 1.500000e+001
    endloop
  endfacet
endsolid
